<mxfile host="app.diagrams.net" modified="2024-05-15T11:39:51.616Z" agent="Mozilla/5.0 (Macintosh; Intel Mac OS X 10_15_7) AppleWebKit/537.36 (KHTML, like Gecko) Chrome/124.0.0.0 Safari/537.36" etag="Pa74u5Iv45ptCGr4z6tx" version="24.4.0" type="device">
  <diagram name="Page-1" id="em5BOV3KmiSnmUTn4OVB">
    <mxGraphModel dx="2084" dy="1071" grid="1" gridSize="10" guides="1" tooltips="1" connect="1" arrows="1" fold="1" page="1" pageScale="1" pageWidth="850" pageHeight="1100" math="0" shadow="0">
      <root>
        <mxCell id="0" />
        <mxCell id="1" parent="0" />
        <mxCell id="M__PV7oAvpm77PRMyovj-6" value="" style="edgeStyle=orthogonalEdgeStyle;rounded=0;orthogonalLoop=1;jettySize=auto;html=1;" edge="1" parent="1" source="M__PV7oAvpm77PRMyovj-2" target="M__PV7oAvpm77PRMyovj-5">
          <mxGeometry relative="1" as="geometry" />
        </mxCell>
        <mxCell id="M__PV7oAvpm77PRMyovj-9" value="" style="edgeStyle=orthogonalEdgeStyle;rounded=0;orthogonalLoop=1;jettySize=auto;html=1;" edge="1" parent="1" source="M__PV7oAvpm77PRMyovj-2" target="M__PV7oAvpm77PRMyovj-8">
          <mxGeometry relative="1" as="geometry" />
        </mxCell>
        <mxCell id="M__PV7oAvpm77PRMyovj-14" value="" style="edgeStyle=orthogonalEdgeStyle;rounded=0;orthogonalLoop=1;jettySize=auto;html=1;" edge="1" parent="1" source="M__PV7oAvpm77PRMyovj-2" target="M__PV7oAvpm77PRMyovj-13">
          <mxGeometry relative="1" as="geometry" />
        </mxCell>
        <mxCell id="M__PV7oAvpm77PRMyovj-26" value="" style="edgeStyle=orthogonalEdgeStyle;rounded=0;orthogonalLoop=1;jettySize=auto;html=1;" edge="1" parent="1" source="M__PV7oAvpm77PRMyovj-2" target="M__PV7oAvpm77PRMyovj-25">
          <mxGeometry relative="1" as="geometry" />
        </mxCell>
        <mxCell id="M__PV7oAvpm77PRMyovj-2" value="" style="rounded=0;whiteSpace=wrap;html=1;movable=1;resizable=1;rotatable=1;deletable=1;editable=1;locked=0;connectable=1;" vertex="1" parent="1">
          <mxGeometry x="240" y="40" width="160" height="40" as="geometry" />
        </mxCell>
        <mxCell id="M__PV7oAvpm77PRMyovj-3" value="Home" style="text;html=1;align=center;verticalAlign=middle;whiteSpace=wrap;rounded=0;" vertex="1" parent="1">
          <mxGeometry x="290" y="45" width="60" height="30" as="geometry" />
        </mxCell>
        <mxCell id="M__PV7oAvpm77PRMyovj-16" value="" style="edgeStyle=orthogonalEdgeStyle;rounded=0;orthogonalLoop=1;jettySize=auto;html=1;" edge="1" parent="1" source="M__PV7oAvpm77PRMyovj-5" target="M__PV7oAvpm77PRMyovj-15">
          <mxGeometry relative="1" as="geometry" />
        </mxCell>
        <mxCell id="M__PV7oAvpm77PRMyovj-23" value="" style="edgeStyle=orthogonalEdgeStyle;rounded=0;orthogonalLoop=1;jettySize=auto;html=1;" edge="1" parent="1" source="M__PV7oAvpm77PRMyovj-5" target="M__PV7oAvpm77PRMyovj-22">
          <mxGeometry relative="1" as="geometry" />
        </mxCell>
        <mxCell id="M__PV7oAvpm77PRMyovj-5" value="About" style="whiteSpace=wrap;html=1;rounded=0;resizable=1;" vertex="1" parent="1">
          <mxGeometry x="40" y="160" width="120" height="60" as="geometry" />
        </mxCell>
        <mxCell id="M__PV7oAvpm77PRMyovj-12" value="" style="edgeStyle=orthogonalEdgeStyle;rounded=0;orthogonalLoop=1;jettySize=auto;html=1;" edge="1" parent="1" source="M__PV7oAvpm77PRMyovj-8" target="M__PV7oAvpm77PRMyovj-11">
          <mxGeometry relative="1" as="geometry" />
        </mxCell>
        <mxCell id="M__PV7oAvpm77PRMyovj-28" value="" style="edgeStyle=orthogonalEdgeStyle;rounded=0;orthogonalLoop=1;jettySize=auto;html=1;" edge="1" parent="1" source="M__PV7oAvpm77PRMyovj-8" target="M__PV7oAvpm77PRMyovj-27">
          <mxGeometry relative="1" as="geometry" />
        </mxCell>
        <mxCell id="M__PV7oAvpm77PRMyovj-30" value="" style="edgeStyle=orthogonalEdgeStyle;rounded=0;orthogonalLoop=1;jettySize=auto;html=1;" edge="1" parent="1" source="M__PV7oAvpm77PRMyovj-8" target="M__PV7oAvpm77PRMyovj-29">
          <mxGeometry relative="1" as="geometry" />
        </mxCell>
        <mxCell id="M__PV7oAvpm77PRMyovj-36" value="" style="edgeStyle=orthogonalEdgeStyle;rounded=0;orthogonalLoop=1;jettySize=auto;html=1;" edge="1" parent="1" source="M__PV7oAvpm77PRMyovj-8" target="M__PV7oAvpm77PRMyovj-35">
          <mxGeometry relative="1" as="geometry" />
        </mxCell>
        <mxCell id="M__PV7oAvpm77PRMyovj-38" value="" style="edgeStyle=orthogonalEdgeStyle;rounded=0;orthogonalLoop=1;jettySize=auto;html=1;" edge="1" parent="1" source="M__PV7oAvpm77PRMyovj-8" target="M__PV7oAvpm77PRMyovj-37">
          <mxGeometry relative="1" as="geometry" />
        </mxCell>
        <mxCell id="M__PV7oAvpm77PRMyovj-8" value="Blog" style="whiteSpace=wrap;html=1;rounded=0;resizable=1;" vertex="1" parent="1">
          <mxGeometry x="260" y="220" width="120" height="60" as="geometry" />
        </mxCell>
        <mxCell id="M__PV7oAvpm77PRMyovj-11" value="Blog 1" style="whiteSpace=wrap;html=1;rounded=0;resizable=1;" vertex="1" parent="1">
          <mxGeometry x="260" y="460" width="120" height="60" as="geometry" />
        </mxCell>
        <mxCell id="M__PV7oAvpm77PRMyovj-13" value="Contact" style="whiteSpace=wrap;html=1;rounded=0;resizable=1;" vertex="1" parent="1">
          <mxGeometry x="660" y="100" width="120" height="60" as="geometry" />
        </mxCell>
        <mxCell id="M__PV7oAvpm77PRMyovj-15" value="Resume" style="whiteSpace=wrap;html=1;rounded=0;resizable=1;" vertex="1" parent="1">
          <mxGeometry x="-70" y="340" width="120" height="60" as="geometry" />
        </mxCell>
        <mxCell id="M__PV7oAvpm77PRMyovj-22" value="Github" style="whiteSpace=wrap;html=1;rounded=0;resizable=1;" vertex="1" parent="1">
          <mxGeometry x="100" y="340" width="120" height="60" as="geometry" />
        </mxCell>
        <mxCell id="M__PV7oAvpm77PRMyovj-25" value="Projects" style="whiteSpace=wrap;html=1;rounded=0;resizable=1;" vertex="1" parent="1">
          <mxGeometry x="500" y="100" width="120" height="60" as="geometry" />
        </mxCell>
        <mxCell id="M__PV7oAvpm77PRMyovj-27" value="Blog 2" style="whiteSpace=wrap;html=1;rounded=0;resizable=1;" vertex="1" parent="1">
          <mxGeometry x="400" y="460" width="120" height="60" as="geometry" />
        </mxCell>
        <mxCell id="M__PV7oAvpm77PRMyovj-29" value="Blog 3" style="whiteSpace=wrap;html=1;rounded=0;resizable=1;" vertex="1" parent="1">
          <mxGeometry x="530" y="460" width="120" height="60" as="geometry" />
        </mxCell>
        <mxCell id="M__PV7oAvpm77PRMyovj-35" value="Blog 4" style="whiteSpace=wrap;html=1;rounded=0;resizable=1;" vertex="1" parent="1">
          <mxGeometry x="660" y="460" width="120" height="60" as="geometry" />
        </mxCell>
        <mxCell id="M__PV7oAvpm77PRMyovj-37" value="Blog 5" style="whiteSpace=wrap;html=1;rounded=0;resizable=1;" vertex="1" parent="1">
          <mxGeometry x="790" y="460" width="120" height="60" as="geometry" />
        </mxCell>
      </root>
    </mxGraphModel>
  </diagram>
</mxfile>
